mtllib african_head.mtl
o african_head
v -0.185216 -0.731840 -0.624782
v -0.076768 -0.999723 0.287201
v -0.302400 -0.911789 0.282364
v -0.624834 -0.805272 -0.047980
v -0.660961 -0.641950 -0.235773
v -0.511812 -0.845392 0.127809
v -0.609326 -0.569868 -0.415710
v -0.428589 -0.645666 -0.572503
v 0.117382 -0.973645 0.306766
v 0.303011 -0.911742 0.282215
v 0.625246 -0.805606 -0.048848
v 0.660859 -0.641489 -0.236011
v 0.511631 -0.845357 0.127832
v 0.608654 -0.568839 -0.416318
v 0.425229 -0.644883 -0.575683
v 0.198972 -0.720968 -0.633141
v -0.005757 -0.107335 0.562977
v 0.156469 -0.141967 0.517020
v 0.169383 -0.140643 0.473555
v 0.159013 -0.370422 0.443499
v 0.323243 0.003708 0.465999
v 0.413190 -0.008074 -0.109482
v 0.313831 -0.015808 -0.352429
v 0.421592 0.108557 0.278669
v 0.115508 -0.571471 0.155081
v 0.151172 -0.382218 0.257332
v 0.299081 0.279085 0.428131
v 0.318760 0.706116 0.349811
v 0.284875 0.393333 0.501811
v 0.040062 0.070198 0.643537
v 0.396400 0.320929 0.312756
v 0.095562 -0.222281 0.571010
v 0.065233 -0.140103 0.623539
v 0.209942 -0.147469 0.518674
v 0.117932 0.268992 0.490932
v 0.394979 -0.186157 0.128693
v 0.083240 0.846140 0.378896
v -0.051832 0.665102 0.532639
v 0.153478 0.118434 0.539700
v 0.095947 0.055544 0.568826
v -0.003758 0.018338 0.595186
v -0.006086 -0.073567 0.650154
v 0.200461 0.954742 0.067202
v -0.011047 0.995896 -0.274961
v -0.050555 0.991507 0.092944
v 0.131152 0.086440 0.600297
v 0.022810 0.138201 0.669434
v 0.071505 -0.121828 0.594476
v -0.003755 0.322854 0.565819
v 0.311241 -0.274345 0.015686
v 0.064668 0.490910 -0.677401
v 0.184913 0.785445 -0.557938
v 0.066459 -0.353031 0.540520
v 0.146701 -0.042830 -0.476294
v 0.245031 0.257904 0.486462
v 0.349444 0.784869 -0.430467
v 0.330698 0.903616 -0.225636
v 0.457338 0.679077 -0.155995
v 0.198052 0.177381 -0.610735
v -0.070442 0.176059 -0.638406
v 0.463110 0.439973 -0.354265
v 0.337245 0.497969 -0.585265
v -0.001631 -0.412714 0.311958
v 0.238626 0.331819 0.501559
v 0.340623 -0.441407 -0.094615
v 0.355070 -0.317014 -0.326190
v -0.191181 0.804116 -0.539580
v -0.007418 -0.315203 -0.434752
v 0.457337 0.271665 -0.203584
v 0.437034 0.095249 -0.037992
v 0.478292 0.235984 -0.015724
v 0.513297 0.321318 -0.083161
v 0.528847 0.279089 -0.190125
v 0.500795 0.090934 -0.183580
v 0.484518 -0.033014 -0.027232
v 0.452975 0.014211 0.027657
v 0.001059 0.032680 0.367488
v 0.000934 -0.223660 0.356216
v 0.116498 0.298254 0.446806
v -0.044094 -0.093994 0.257456
v 0.210264 -0.315657 -0.409125
v 0.416280 -0.722188 -0.011529
v 0.170484 -0.815830 0.205744
v 0.001713 -0.826883 0.163830
v -0.067628 -0.116220 0.581538
v -0.165304 -0.135058 0.479907
v -0.136580 -0.373810 0.488064
v -0.367127 0.046207 0.404176
v -0.305912 -0.033862 -0.343833
v -0.411697 -0.008316 -0.109120
v -0.442866 0.127714 0.183838
v -0.149636 -0.382493 0.258544
v -0.112681 -0.575838 0.157513
v -0.315196 0.389333 0.466683
v -0.105838 0.447633 0.569010
v -0.323258 0.704576 0.334584
v -0.236915 0.329341 0.503588
v -0.048971 0.090307 0.666204
v -0.395067 -0.185317 0.140032
v -0.224429 -0.132120 0.520939
v -0.401954 0.301598 0.312298
v -0.266734 0.041761 0.504413
v -0.053279 0.221786 0.586579
v -0.158916 0.065000 0.542216
v -0.183221 0.834561 0.334149
v -0.083642 0.074804 0.580080
v -0.117243 0.270526 0.489813
v -0.281094 0.941751 -0.116035
v -0.118739 -0.157414 0.586960
v -0.235104 0.253726 0.493223
v -0.309158 -0.275599 0.016631
v -0.232296 0.501671 -0.642567
v -0.160151 -0.141703 0.518390
v -0.118792 -0.049552 -0.487876
v -0.417356 0.777771 -0.319244
v -0.298649 0.186840 -0.546996
v -0.445813 0.479776 -0.443193
v -0.302845 0.282749 0.427314
v -0.353714 -0.314767 -0.325498
v -0.339256 -0.444374 -0.093872
v -0.455963 0.271565 -0.203569
v -0.480633 0.197993 -0.017601
v -0.435849 0.093801 -0.037199
v -0.468441 0.300682 0.001628
v -0.512104 0.321390 -0.083291
v -0.527873 0.279217 -0.190195
v -0.502005 0.082547 -0.175554
v -0.482817 -0.033337 -0.027097
v -0.451797 0.014492 0.027701
v -0.122760 0.304251 0.449120
v -0.203868 -0.309573 -0.411139
v -0.416637 -0.721228 -0.013795
v -0.170076 -0.816396 0.206543
vn 0.0849 -0.9030 0.4213
vn -0.9653 0.2270 -0.1293
vn -0.8734 0.2709 0.4046
vn 0.9523 0.3043 0.0229
vn 0.9467 -0.0654 0.3155
vn 0.9891 -0.0320 0.1439
vn 0.6196 -0.2028 0.7582
vn 0.2110 0.3208 0.9233
vn 0.3256 -0.3405 0.8821
vn 0.7332 -0.1142 0.6703
vn 0.5272 -0.7649 0.3702
vn 0.8783 -0.4745 0.0590
vn 0.9689 -0.2234 0.1065
vn 0.5767 -0.0104 0.8169
vn -0.0925 0.4102 0.9073
vn -0.2127 0.0470 0.9760
vn -0.0232 0.9573 -0.2881
vn 0.4442 0.8695 0.2157
vn 0.6246 0.7709 -0.1249
vn 0.0019 0.1219 0.9925
vn 0.8171 -0.2541 0.5175
vn 0.2094 0.2403 0.9478
vn 0.3113 -0.5588 0.7687
vn 0.5513 -0.3702 0.7477
vn 0.0764 -0.0021 0.9971
vn -0.0064 -0.1868 0.9824
vn -0.4387 -0.2329 0.8679
vn 0.4285 -0.8532 0.2974
vn 0.9174 0.0767 0.3906
vn 0.0027 -0.8557 0.5174
vn 0.4719 -0.0859 0.8774
vn 0.6106 -0.7272 0.3136
vn -0.0547 0.9904 0.1270
vn 0.2006 0.7371 0.6453
vn 0.7138 0.4451 0.5407
vn 0.5499 0.1539 0.8209
vn 0.8933 -0.3575 0.2724
vn 0.6976 0.5397 -0.4712
vn 0.2623 0.5951 -0.7597
vn 0.0909 0.1108 -0.9897
vn 0.4217 -0.3483 -0.8371
vn -0.1168 -0.3460 -0.9309
vn 0.1981 -0.6601 0.7245
vn 0.1226 -0.4058 0.9057
vn 0.5019 0.0993 0.8592
vn 0.7720 -0.5057 -0.3852
vn -0.2630 -0.3697 -0.8912
vn 0.3188 -0.3585 -0.8774
vn -0.3376 0.6192 -0.7090
vn 0.0195 0.1044 -0.9943
vn 0.6588 0.0497 -0.7506
vn 0.9392 0.0876 0.3320
vn 0.8362 0.3495 -0.4227
vn 0.7998 -0.1772 -0.5735
vn 0.2951 0.2206 -0.9297
vn 0.9485 -0.0388 -0.3143
vn 0.8069 -0.0286 -0.5900
vn 0.3576 0.5326 0.7671
vn -0.1134 0.9629 0.2449
vn 0.2917 0.8142 0.5020
vn 0.7234 0.4204 -0.5477
vn 0.5812 -0.3977 -0.7099
vn 0.5181 -0.7944 0.3169
vn 0.9980 0.0245 0.0583
vn 0.8110 -0.2268 0.5392
vn -0.0111 -0.9765 0.2152
vn -0.0711 -0.9608 0.2678
vn -0.0747 0.9326 0.3530
vn 0.4733 0.5445 0.6925
vn 0.5297 0.6734 0.5158
vn -0.0145 0.4552 -0.8903
vn 0.1903 0.5652 -0.8027
vn 0.0690 0.5125 0.8559
vn -0.0240 0.3133 0.9493
vn 0.0369 0.5414 0.8400
vn -0.0351 0.6669 -0.7443
vn 0.6151 0.7279 -0.3030
vn 0.1007 0.7016 0.7054
vn -0.1304 0.5653 0.8145
vn 0.1632 0.9156 0.3675
vn 0.3399 0.7219 0.6028
vn 0.5753 0.3541 0.7373
vn 0.9605 0.1920 -0.2016
vn -0.9168 0.0716 0.3930
vn -0.9586 0.1700 0.2285
vn -0.9751 -0.0576 0.2140
vn -0.6992 0.0203 0.7146
vn -0.7672 0.4199 0.4848
vn -0.8471 -0.0944 0.5231
vn -0.8778 -0.4731 0.0756
vn -0.6466 -0.2056 0.7346
vn -0.5542 0.0405 0.8314
vn -0.4290 -0.7438 0.5125
vn -0.9689 -0.2247 0.1039
vn -0.8257 0.5064 -0.2488
vn -0.3335 -0.6217 0.7087
vn -0.4436 0.0055 0.8962
vn -0.4054 0.7364 0.5416
vn -0.5757 0.8176 -0.0046
vn -0.6572 -0.3495 0.6678
vn -0.6206 -0.7133 0.3257
vn -0.4690 -0.0867 0.8789
vn -0.3733 0.2995 0.8780
vn -0.3092 0.4178 0.8543
vn -0.4183 0.1222 -0.9000
vn -0.8937 -0.3552 0.2741
vn -0.5619 0.3980 0.7252
vn -0.3185 0.2273 -0.9203
vn -0.6401 -0.3325 -0.6926
vn -0.7979 -0.1816 -0.5748
vn -0.8979 0.0437 -0.4381
vn -0.4970 0.1062 0.8612
vn -0.3178 -0.5086 0.8002
vn -0.7651 -0.5068 -0.3971
vn -0.9361 0.0945 0.3388
vn -0.8313 0.3607 -0.4229
vn -0.8181 0.0370 -0.5739
vn -0.5233 0.8367 0.1616
vn -0.9706 -0.1710 0.1695
vn -0.6237 -0.3988 -0.6723
vn -0.7142 0.4195 -0.5603
vn -0.5053 -0.8007 0.3218
vn -0.9997 -0.0052 0.0257
vn 0.1999 -0.0690 0.9774
vn -0.7802 -0.2948 0.5516
vn -0.5300 0.6729 0.5160
vn -0.4717 0.5487 0.6902
vn -0.2114 0.5427 -0.8129
vn -0.0476 0.4698 0.8815
vn -0.6162 0.7261 -0.3052
vn -0.0692 0.6781 0.7317
vn -0.1627 0.9150 0.3693
vn -0.3355 0.7251 0.6014
vt 0.525322 0.995066
vt 0.539521 0.936616
vt 0.548205 0.955378
vt 0.808141 0.718848
vt 0.702518 0.478980
vt 0.794879 0.559444
vt 0.572957 0.360163
vt 0.561901 0.365425
vt 0.517398 0.344286
vt 0.528435 0.321992
vt 0.629864 0.424450
vt 0.569132 0.262418
vt 0.717537 0.334589
vt 0.777452 0.444501
vt 0.611482 0.637813
vt 0.479535 0.772376
vt 0.461621 0.673125
vt 0.815178 0.941086
vt 0.688908 0.890592
vt 0.797611 0.846737
vt 0.497703 0.599884
vt 0.538671 0.459173
vt 0.507186 0.479907
vt 0.513106 0.448571
vt 0.538057 0.438319
vt 0.497203 0.428503
vt 0.497079 0.384306
vt 0.487773 0.459014
vt 0.622521 0.569584
vt 0.681739 0.595333
vt 0.500000 0.182404
vt 0.584782 0.116857
vt 0.597405 0.199799
vt 0.556675 0.363913
vt 0.501918 0.359203
vt 0.532150 0.857491
vt 0.640378 0.768687
vt 0.566498 0.480565
vt 0.733786 0.259868
vt 0.869968 0.785593
vt 0.918468 0.794507
vt 0.982826 0.668791
vt 0.955873 0.543433
vt 0.999000 0.553772
vt 0.546757 0.858653
vt 0.521958 0.266192
vt 0.600557 0.574517
vt 0.524836 0.366931
vt 0.556979 0.567977
vt 0.830491 0.415049
vt 0.999000 0.386861
vt 0.955517 0.391338
vt 0.936000 0.877000
vt 0.988199 0.202133
vt 0.921447 0.658837
vt 0.771062 0.181546
vt 0.870682 0.195174
vt 0.895074 0.397949
vt 0.921480 0.196718
vt 0.873852 0.629150
vt 0.854802 0.558875
vt 0.606674 0.558050
vt 0.638847 0.948380
vt 0.824116 0.576129
vt 0.845689 0.552275
vt 0.837497 0.492213
vt 0.791110 0.438774
vt 0.792457 0.497641
vt 0.564597 0.569675
vt 0.570150 0.960457
vt 0.598227 0.954910
vt 0.615035 0.969749
vt 0.483825 0.996075
vt 0.500114 0.970000
vt 0.500162 0.942016
vt 0.505020 0.911107
vt 0.749718 0.067682
vt 0.823014 0.001671
vt 0.999000 0.002437
vt 0.908051 0.002404
vt 0.600992 0.037257
vt 0.500000 0.047990
vt 0.469714 0.001997
vt 0.958000 0.002000
vt 0.867000 0.002000
vt 0.620518 0.002106
vt 0.550000 0.002000
vt 0.697000 0.002000
vt 0.754820 0.002000
vt 0.467000 0.994000
vt 0.458075 0.940440
vt 0.320836 0.593682
vt 0.204035 0.592402
vt 0.273860 0.493894
vt 0.375095 0.625921
vt 0.344095 0.763275
vt 0.343706 0.456886
vt 0.286276 0.335852
vt 0.426130 0.371086
vt 0.386780 0.445492
vt 0.447115 0.263488
vt 0.222533 0.444724
vt 0.158472 0.773142
vt 0.468063 0.441564
vt 0.446193 0.457453
vt 0.399533 0.842974
vt 0.350850 0.936541
vt 0.238079 0.867705
vt 0.375149 0.569932
vt 0.403684 0.199622
vt 0.417174 0.115814
vt 0.468191 0.339118
vt 0.444201 0.364619
vt 0.397872 0.558611
vt 0.001000 0.669344
vt 0.054118 0.665464
vt 0.088400 0.807800
vt 0.014000 0.778000
vt 0.436601 0.363971
vt 0.266513 0.259168
vt 0.475165 0.515913
vt 0.035598 0.394946
vt 0.018253 0.189800
vt 0.078557 0.202201
vt 0.067812 0.540531
vt 0.016414 0.551651
vt 0.106053 0.386275
vt 0.110863 0.642543
vt 0.481025 0.365964
vt 0.444229 0.566417
vt 0.400679 0.580694
vt 0.169511 0.415023
vt 0.229154 0.182284
vt 0.129255 0.196572
vt 0.145203 0.558857
vt 0.187639 0.939532
vt 0.175882 0.576066
vt 0.207060 0.540058
vt 0.164614 0.490101
vt 0.154300 0.552318
vt 0.208893 0.438684
vt 0.207813 0.497257
vt 0.493989 0.955813
vt 0.436071 0.569786
vt 0.176986 0.001670
vt 0.249884 0.068031
vt 0.091973 0.002283
vt 0.038526 0.002043
vt 0.399208 0.037240
vt 0.133000 0.002000
vt 0.379527 0.002116
vt 0.303000 0.002000
vt 0.245345 0.002000
vt 0.573634 0.981373
vt 0.589305 0.994211
vt 0.384689 0.969550
vt 0.428179 0.983457
vt 0.410185 0.995233
vt 0.436866 0.965855
vt 0.403093 0.954356
s 1
f 48/1/1 19/2/2 18/3/3
f 58/4/4 24/5/5 71/6/6
f 34/7/7 18/8/3 33/9/8
f 34/7/7 33/9/8 32/10/9
f 21/11/10 20/12/11 36/13/12
f 24/5/5 36/13/12 76/14/13
f 29/15/14 38/16/15 95/17/16
f 44/18/17 43/19/18 57/20/19
f 95/17/16 49/21/20 29/15/14
f 46/22/21 47/23/22 30/24/23
f 40/25/24 30/24/23 41/26/25
f 40/25/24 41/26/25 42/27/26
f 98/28/27 30/24/23 47/23/22
f 29/15/14 27/29/28 31/30/29
f 24/5/5 58/4/4 31/30/29
f 63/31/30 25/32/31 26/33/32
f 33/9/8 19/34/2 17/35/33
f 37/36/34 38/16/15 28/37/35
f 33/9/8 18/8/3 19/34/2
f 21/11/10 36/13/12 24/5/5
f 39/38/36 34/7/7 21/11/10
f 26/33/32 50/39/37 36/13/12
f 26/33/32 36/13/12 20/12/11
f 39/38/36 47/23/22 46/22/21
f 56/40/38 57/20/19 58/4/4
f 44/18/17 57/20/19 52/41/39
f 51/42/40 59/43/41 60/44/42
f 43/19/18 37/45/34 28/37/35
f 43/19/18 28/37/35 57/20/19
f 20/12/11 53/46/43 63/31/30
f 29/15/14 64/47/44 27/29/28
f 34/7/7 42/27/26 48/48/1
f 53/46/43 20/12/11 34/7/7
f 49/21/20 47/23/22 39/38/36
f 64/47/44 29/15/14 35/49/45
f 50/39/37 22/50/46 76/14/13
f 114/51/47 60/44/42 59/43/41
f 114/51/47 59/43/41 54/52/48
f 44/18/17 52/41/39 67/53/49
f 54/52/48 68/54/50 114/51/47
f 62/55/51 51/42/40 52/41/39
f 50/39/37 65/56/52 22/50/46
f 22/50/46 65/56/52 66/57/53
f 66/57/53 23/58/54 22/50/46
f 23/58/54 66/57/53 81/59/55
f 61/60/56 62/55/51 56/40/38
f 61/60/56 56/40/38 58/4/4
f 71/6/6 69/61/57 61/60/56
f 71/6/6 61/60/56 58/4/4
f 29/15/14 28/37/35 38/16/15
f 31/30/29 21/11/10 24/5/5
f 20/12/11 21/11/10 34/7/7
f 31/30/29 28/37/35 29/15/14
f 34/7/7 32/10/9 53/46/43
f 49/21/20 35/49/45 29/15/14
f 55/62/58 21/11/10 31/30/29
f 55/62/58 35/49/45 39/38/36
f 35/49/45 49/21/20 39/38/36
f 40/25/24 46/22/21 30/24/23
f 40/25/24 34/7/7 39/38/36
f 34/7/7 40/25/24 42/27/26
f 34/7/7 48/48/1 18/8/3
f 44/18/17 45/63/59 43/19/18
f 37/45/34 43/19/18 45/63/59
f 50/39/37 26/33/32 25/32/31
f 23/58/54 81/59/55 54/52/48
f 54/52/48 59/43/41 23/58/54
f 62/55/51 23/58/54 59/43/41
f 62/55/51 52/41/39 56/40/38
f 81/59/55 68/54/50 54/52/48
f 31/30/29 58/4/4 28/37/35
f 56/40/38 52/41/39 57/20/19
f 46/22/21 40/25/24 39/38/36
f 69/61/57 71/6/6 72/64/60
f 69/61/57 73/65/61 74/66/62
f 74/66/62 75/67/63 22/50/46
f 75/67/63 76/14/13 22/50/46
f 70/68/64 76/14/13 74/66/62
f 70/68/64 71/6/6 76/14/13
f 72/64/60 74/66/62 73/65/61
f 22/50/46 69/61/57 74/66/62
f 74/66/62 76/14/13 75/67/63
f 23/58/54 69/61/57 22/50/46
f 63/31/30 26/33/32 20/12/11
f 27/29/28 55/62/58 31/30/29
f 21/11/10 55/62/58 39/38/36
f 23/58/54 62/55/51 61/60/56
f 59/43/41 51/42/40 62/55/51
f 69/61/57 23/58/54 61/60/56
f 76/14/13 71/6/6 24/5/5
f 28/37/35 58/4/4 57/20/19
f 64/47/44 35/49/45 79/69/65
f 35/70/45 55/71/58 27/72/28
f 50/39/37 76/14/13 36/13/12
f 74/66/62 72/64/60 70/68/64
f 48/1/1 85/73/66 77/74/67
f 19/2/2 78/75/68 17/76/33
f 66/57/53 82/77/69 12/78/70
f 1/79/71 68/54/50 81/59/55
f 1/79/71 81/59/55 15/80/72
f 66/57/53 15/80/72 81/59/55
f 83/81/73 82/77/69 65/56/52
f 83/81/73 65/56/52 50/39/37
f 83/81/73 50/39/37 25/32/31
f 84/82/74 83/81/73 25/32/31
f 65/56/52 82/77/69 66/57/53
f 83/81/73 84/82/74 2/83/75
f 84/82/74 25/32/31 63/31/30
f 1/79/71 15/80/72 16/84/76
f 14/85/77 66/57/53 12/78/70
f 66/57/53 14/85/77 15/80/72
f 10/86/78 83/81/73 9/87/79
f 13/88/80 83/81/73 10/86/78
f 12/78/70 82/77/69 11/89/81
f 11/89/81 82/77/69 83/81/73
f 11/89/81 83/81/73 13/88/80
f 9/87/79 83/81/73 2/83/75
f 85/73/66 113/90/82 86/91/83
f 101/92/84 124/93/85 91/94/86
f 94/95/87 96/96/88 101/92/84
f 96/96/88 94/95/87 95/17/16
f 96/96/88 95/17/16 38/16/15
f 88/97/89 91/94/86 99/98/90
f 88/97/89 100/99/91 102/100/92
f 88/97/89 99/98/90 87/101/93
f 91/94/86 129/102/94 99/98/90
f 115/103/95 124/93/85 96/96/88
f 106/104/96 104/105/97 42/27/26
f 106/104/96 42/27/26 41/26/25
f 37/36/34 105/106/98 38/16/15
f 105/106/98 45/107/59 108/108/99
f 94/95/87 101/92/84 118/109/100
f 63/31/30 92/110/101 93/111/102
f 109/112/103 17/35/33 86/113/83
f 88/97/89 110/114/104 101/92/84
f 51/115/40 112/116/105 67/117/49
f 51/115/40 67/117/49 52/118/39
f 109/112/103 86/113/83 113/119/82
f 92/110/101 87/101/93 99/98/90
f 92/110/101 99/98/90 111/120/106
f 98/28/27 47/23/22 103/121/107
f 114/122/47 68/123/50 131/124/108
f 103/121/107 102/100/92 104/105/97
f 49/21/20 103/121/107 47/23/22
f 103/121/107 104/105/97 98/28/27
f 17/35/33 109/112/103 33/9/8
f 98/28/27 106/104/96 41/26/25
f 116/125/109 60/126/42 114/122/47
f 116/125/109 89/127/110 117/128/111
f 51/115/40 60/126/42 112/116/105
f 124/93/85 115/103/95 117/128/111
f 108/108/99 96/96/88 105/106/98
f 87/101/93 63/31/30 53/46/43
f 87/101/93 109/112/103 100/99/91
f 100/99/91 113/119/82 42/27/26
f 42/27/26 113/119/82 85/129/66
f 48/48/1 42/27/26 85/129/66
f 87/101/93 100/99/91 88/97/89
f 113/119/82 100/99/91 109/112/103
f 107/130/112 102/100/92 103/121/107
f 97/131/113 107/130/112 95/17/16
f 111/120/106 129/102/94 90/132/114
f 111/120/106 90/132/114 120/133/115
f 90/132/114 119/134/116 120/133/115
f 119/134/116 90/132/114 89/127/110
f 89/127/110 131/124/108 119/134/116
f 124/93/85 117/128/111 121/135/117
f 110/114/104 118/109/100 101/92/84
f 105/106/98 96/96/88 38/16/15
f 97/131/113 94/95/87 118/109/100
f 97/131/113 95/17/16 94/95/87
f 49/21/20 95/17/16 107/130/112
f 33/9/8 109/112/103 32/10/9
f 109/112/103 87/101/93 53/46/43
f 109/112/103 53/46/43 32/10/9
f 30/24/23 98/28/27 41/26/25
f 107/130/112 103/121/107 49/21/20
f 91/94/86 88/97/89 101/92/84
f 104/105/97 100/99/91 42/27/26
f 98/28/27 104/105/97 106/104/96
f 44/136/17 108/108/99 45/107/59
f 105/106/98 37/36/34 45/107/59
f 111/120/106 93/111/102 92/110/101
f 89/127/110 114/122/47 131/124/108
f 114/122/47 89/127/110 116/125/109
f 117/128/111 112/116/105 116/125/109
f 117/128/111 115/103/95 67/117/49
f 117/128/111 67/117/49 112/116/105
f 102/100/92 110/114/104 88/97/89
f 101/92/84 96/96/88 124/93/85
f 115/103/95 108/108/99 44/136/17
f 115/103/95 44/136/17 67/117/49
f 104/105/97 102/100/92 100/99/91
f 125/137/118 122/138/119 124/93/85
f 129/102/94 124/93/85 122/138/119
f 121/135/117 125/137/118 124/93/85
f 121/135/117 127/139/120 126/140/121
f 127/139/120 90/132/114 128/141/122
f 128/141/122 90/132/114 129/102/94
f 123/142/123 127/139/120 129/102/94
f 123/142/123 129/102/94 122/138/119
f 125/137/118 126/140/121 127/139/120
f 90/132/114 127/139/120 121/135/117
f 127/139/120 128/141/122 129/102/94
f 89/127/110 90/132/114 121/135/117
f 63/31/30 87/101/93 92/110/101
f 102/100/92 107/130/112 110/114/104
f 60/126/42 116/125/109 112/116/105
f 121/135/117 117/128/111 89/127/110
f 129/102/94 91/94/86 124/93/85
f 108/108/99 115/103/95 96/96/88
f 86/91/83 80/143/124 77/74/67
f 86/91/83 17/76/33 78/75/68
f 97/131/113 130/144/125 107/130/112
f 111/120/106 99/98/90 129/102/94
f 119/134/116 5/145/126 132/146/127
f 8/147/128 131/124/108 1/148/71
f 1/148/71 131/124/108 68/123/50
f 119/134/116 131/124/108 8/147/128
f 133/149/129 111/120/106 120/133/115
f 133/149/129 120/133/115 132/146/127
f 133/149/129 93/111/102 111/120/106
f 84/82/74 93/111/102 133/149/129
f 120/133/115 119/134/116 132/146/127
f 133/149/129 2/83/75 84/82/74
f 84/82/74 63/31/30 93/111/102
f 7/150/130 5/145/126 119/134/116
f 119/134/116 8/147/128 7/150/130
f 3/151/131 2/83/75 133/149/129
f 6/152/132 3/151/131 133/149/129
f 5/145/126 4/153/133 132/146/127
f 4/153/133 6/152/132 133/149/129
f 4/153/133 133/149/129 132/146/127
f 77/74/67 19/2/2 48/1/1
f 72/64/60 73/65/61 69/61/57
f 79/154/65 27/72/28 64/155/44
f 79/154/65 35/70/45 27/72/28
f 70/68/64 72/64/60 71/6/6
f 80/143/124 78/75/68 19/2/2
f 80/143/124 19/2/2 77/74/67
f 86/91/83 77/74/67 85/73/66
f 126/140/121 125/137/118 121/135/117
f 118/156/100 130/157/125 97/158/113
f 107/159/112 130/157/125 110/160/104
f 130/157/125 118/156/100 110/160/104
f 125/137/118 123/142/123 122/138/119
f 127/139/120 123/142/123 125/137/118
f 86/91/83 78/75/68 80/143/124
