mtllib african_head.mtl
o african_head
v -0.185216 -0.731840 -0.624782
v -0.076768 -0.999723 0.287201
v -0.401094 -0.881462 0.237249
v -0.624834 -0.805272 -0.047980
v -0.662864 -0.597647 -0.277139
v -0.428589 -0.645666 -0.572503
v 0.229649 -0.933711 0.320022
v 0.610398 -0.835300 -0.018564
v 0.662496 -0.596844 -0.277513
v 0.294488 -0.705142 -0.619687
v -0.005757 -0.107335 0.562977
v 0.164692 -0.140126 0.500084
v 0.127194 -0.371702 0.504430
v 0.251734 -0.040876 -0.435171
v 0.372929 0.058272 0.421536
v -0.000941 -0.711352 0.196514
v 0.311343 -0.310154 0.201349
v 0.287968 0.272357 0.446875
v 0.349054 0.638110 0.349249
v 0.280091 0.345666 0.499182
v 0.133572 -0.152731 0.575359
v 0.115488 0.273184 0.488137
v 0.020248 0.773868 0.479559
v 0.163659 0.086259 0.544744
v 0.026960 0.035639 0.594754
v 0.058828 1.001240 0.095833
v -0.011047 0.995896 -0.274961
v 0.013118 0.083232 0.691143
v 0.000817 -0.108890 0.641485
v 0.306777 -0.314093 -0.005012
v -0.138633 0.675604 -0.665435
v 0.320190 0.712350 -0.574235
v 0.425418 0.834603 -0.190089
v 0.100884 0.157398 -0.645288
v 0.470353 0.296965 -0.210570
v -0.038049 -0.422679 0.307145
v 0.330244 -0.288616 -0.357385
v -0.135277 -0.311699 -0.433162
v 0.465317 0.177673 -0.023978
v 0.528012 0.326853 -0.146775
v 0.446747 0.041519 -0.136042
v 0.460501 -0.013203 0.009991
v 0.001059 0.032680 0.367488
v -0.039396 -0.167535 0.284889
v 0.263954 -0.795157 0.172838
v -0.160333 -0.138024 0.503446
v -0.136580 -0.373810 0.488064
v -0.327257 0.026615 0.470477
v -0.230450 -0.041797 -0.462843
v -0.296380 0.761578 0.339315
v -0.281946 0.338036 0.494960
v -0.462152 -0.033351 0.019128
v -0.420983 0.212804 0.290230
v -0.008170 0.324028 0.576320
v -0.133473 0.068183 0.559644
v -0.115287 0.274393 0.486826
v -0.186280 -0.160241 0.543694
v -0.305295 -0.315229 -0.005016
v -0.377974 0.880846 -0.232011
v -0.445813 0.479776 -0.443193
v -0.278005 0.270697 0.460408
v -0.353714 -0.314767 -0.325498
v -0.448093 0.121357 -0.025080
v -0.486144 0.314267 -0.054268
v -0.483916 0.283295 -0.186098
v -0.447182 0.033516 -0.126518
v -0.416637 -0.721228 -0.013795
v -0.170076 -0.816396 0.206543
vn 0.8087 0.5840 -0.0708
vn 0.8250 -0.0680 0.5611
vn 0.9835 0.0089 0.1808
vn 0.3563 -0.7056 0.6125
vn 0.8079 -0.5393 0.2376
vn 0.9708 -0.2396 0.0075
vn 0.6171 -0.1491 0.7726
vn 0.0450 0.5853 0.8096
vn -0.0379 0.1821 0.9825
vn -0.0067 0.9532 -0.3024
vn 0.1170 0.9557 0.2701
vn 0.5376 -0.0147 0.8431
vn 0.7753 0.3800 0.5045
vn -0.2906 -0.8266 0.4820
vn 0.0062 0.1330 0.9911
vn 0.3185 -0.1901 0.9287
vn -0.9363 0.3080 -0.1686
vn -0.0531 0.7896 0.6114
vn 0.5040 0.1175 0.8557
vn 0.5864 0.3806 -0.7151
vn 0.0307 -0.2482 0.9682
vn 0.9435 -0.3195 0.0881
vn 0.9408 -0.2203 -0.2576
vn -0.4874 -0.2308 -0.8421
vn 0.1849 -0.3313 -0.9252
vn 0.5519 -0.2456 -0.7969
vn -0.2679 0.3544 -0.8959
vn -0.0973 0.1726 -0.9802
vn 0.7674 0.2132 -0.6047
vn 0.9392 0.0026 -0.3435
vn 0.4240 -0.1040 0.8997
vn 0.1854 -0.3633 0.9130
vn 0.0392 -0.5829 0.8116
vn 0.5386 0.8409 0.0523
vn 0.1612 0.5051 0.8479
vn 0.3359 0.5241 0.7826
vn 0.6286 0.7370 0.2483
vn 0.0046 0.4472 -0.8944
vn 0.1934 0.5109 -0.8376
vn -0.0347 0.4209 0.9065
vn 0.4347 0.6150 0.6579
vn -0.0294 0.7312 0.6815
vn -0.5287 -0.0644 0.8464
vn -0.6519 0.5368 0.5356
vn -0.9294 0.0312 0.3679
vn -0.7518 -0.0855 0.6539
vn -0.9504 -0.3104 0.0202
vn -0.4437 -0.7149 0.5404
vn -0.7210 0.6762 -0.1510
vn -0.9939 0.0667 0.0881
vn -0.4648 0.0744 0.8823
vn -0.4637 -0.1908 0.8652
vn -0.4642 -0.2500 0.8497
vn 0.9425 0.2842 -0.1760
vn -0.8958 -0.1816 0.4057
vn -0.8544 0.0382 -0.5182
vn -0.5143 -0.0706 0.8547
vn -0.9569 -0.1787 -0.2290
vn -0.8635 0.2979 -0.4070
vn -0.9764 -0.1092 -0.1865
vn -0.8716 -0.1780 -0.4567
vn -0.0450 -0.9076 0.4173
vn -0.6004 0.7420 0.2984
vn -0.5345 0.4983 0.6827
vn -0.3304 0.5333 -0.7788
vn -0.2000 0.4298 0.8805
vn -0.1556 0.8161 0.5566
vn -0.3454 0.7005 0.6244
vt 0.802036 0.792990
vt 0.654539 0.442970
vt 0.793897 0.534375
vt 0.546336 0.264242
vt 0.660795 0.270924
vt 0.782929 0.442205
vt 0.605664 0.604107
vt 0.506025 0.815229
vt 0.492453 0.594027
vt 0.815178 0.941086
vt 0.659653 0.924362
vt 0.618224 0.566456
vt 0.647964 0.736894
vt 0.479943 0.185990
vt 0.478243 0.083567
vt 0.540092 0.347045
vt 0.559756 0.364804
vt 0.501918 0.359203
vt 0.560563 0.476002
vt 0.905452 0.751446
vt 0.546757 0.858653
vt 0.504407 0.461345
vt 0.741792 0.243048
vt 0.833486 0.448034
vt 0.999000 0.386861
vt 0.971898 0.547275
vt 0.924337 0.394749
vt 0.936000 0.877000
vt 0.988199 0.202133
vt 0.882029 0.195519
vt 0.856811 0.566287
vt 0.557656 0.568128
vt 0.509839 0.431539
vt 0.503601 0.377098
vt 0.835009 0.564085
vt 0.982826 0.668791
vt 0.544640 0.947676
vt 0.496678 0.949803
vt 0.505020 0.911107
vt 0.641959 0.045638
vt 0.834567 0.001757
vt 0.999000 0.002437
vt 0.938455 0.002158
vt 0.469714 0.001997
vt 0.744424 0.002000
vt 0.591678 0.002063
vt 0.390608 0.598497
vt 0.361060 0.787663
vt 0.302348 0.554408
vt 0.366660 0.450814
vt 0.223142 0.432915
vt 0.447115 0.263488
vt 0.195173 0.816738
vt 0.186928 0.582476
vt 0.454114 0.451698
vt 0.350850 0.936541
vt 0.384944 0.565052
vt 0.442377 0.358737
vt 0.439542 0.364222
vt 0.258463 0.242601
vt 0.110863 0.642543
vt 0.443532 0.566705
vt 0.167592 0.444446
vt 0.129255 0.196572
vt 0.078017 0.416292
vt 0.057000 0.197768
vt 0.149128 0.556036
vt 0.187639 0.939532
vt 0.061027 0.737261
vt 0.207606 0.509074
vt 0.016414 0.551651
vt 0.463546 0.973272
vt 0.500114 0.970000
vt 0.165467 0.001757
vt 0.249884 0.068031
vt 0.091973 0.002283
vt 0.038526 0.002043
vt 0.399208 0.037240
vt 0.348074 0.002068
vt 0.245345 0.002000
vt 0.514145 0.995338
vt 0.570460 0.962317
vt 0.610477 0.965725
vt 0.589305 0.994211
vt 0.392622 0.963000
vt 0.436124 0.967359
vt 0.410185 0.995233
s 1
f 33/1/1 15/2/2 39/3/3
f 15/2/2 13/4/4 17/5/5
f 15/2/2 17/5/5 42/6/6
f 20/7/7 23/8/8 54/9/9
f 27/10/10 26/11/11 33/1/1
f 20/7/7 18/12/12 19/13/13
f 15/2/2 33/1/1 19/13/13
f 36/14/14 16/15/15 17/5/5
f 21/16/16 12/17/17 11/18/18
f 24/19/19 21/16/16 15/2/2
f 27/10/10 33/1/1 32/20/20
f 26/11/11 23/21/8 19/13/13
f 26/11/11 19/13/13 33/1/1
f 54/9/9 28/22/21 24/19/19
f 30/23/22 41/24/23 42/6/6
f 49/25/24 34/26/25 14/27/26
f 27/10/10 32/20/20 31/28/27
f 14/27/26 38/29/28 49/25/24
f 41/24/23 30/23/22 37/30/29
f 37/30/29 14/27/26 41/24/23
f 35/31/30 32/20/20 33/1/1
f 39/3/3 35/31/30 33/1/1
f 20/7/7 19/13/13 23/8/8
f 13/4/4 15/2/2 21/16/16
f 54/9/9 22/32/31 20/7/7
f 18/12/12 15/2/2 19/13/13
f 18/12/12 22/32/31 24/19/19
f 22/32/31 54/9/9 24/19/19
f 25/33/32 24/19/19 28/22/21
f 25/33/32 21/16/16 24/19/19
f 21/16/16 25/33/32 29/34/33
f 21/16/16 29/34/33 12/17/17
f 30/23/22 17/5/5 16/15/15
f 32/20/20 14/27/26 34/26/25
f 37/30/29 38/29/28 14/27/26
f 35/31/30 39/3/3 40/35/34
f 35/31/30 40/35/34 41/24/23
f 39/3/3 42/6/6 41/24/23
f 14/27/26 35/31/30 41/24/23
f 36/14/14 17/5/5 13/4/4
f 15/2/2 18/12/12 24/19/19
f 14/27/26 32/20/20 35/31/30
f 34/26/25 31/36/27 32/20/20
f 42/6/6 39/3/3 15/2/2
f 30/23/22 42/6/6 17/5/5
f 41/24/23 40/35/34 39/3/3
f 12/37/17 44/38/35 11/39/18
f 37/30/29 45/40/36 9/41/37
f 1/42/38 38/29/28 37/30/29
f 1/42/38 37/30/29 10/43/39
f 45/40/36 30/23/22 16/15/15
f 30/23/22 45/40/36 37/30/29
f 45/40/36 16/15/15 2/44/40
f 37/30/29 9/41/37 10/43/39
f 8/45/41 45/40/36 7/46/42
f 9/41/37 45/40/36 8/45/41
f 7/46/42 45/40/36 2/44/40
f 51/47/43 50/48/44 53/49/45
f 50/48/44 51/47/43 54/9/9
f 50/48/44 54/9/9 23/8/8
f 48/50/46 53/49/45 52/51/47
f 48/50/46 52/51/47 47/52/48
f 59/53/49 64/54/50 50/48/44
f 55/55/51 29/34/33 25/33/32
f 50/48/44 26/56/11 59/53/49
f 51/47/43 53/49/45 61/57/52
f 57/58/53 11/18/18 46/59/54
f 48/50/46 61/57/52 53/49/45
f 36/14/14 47/52/48 52/51/47
f 36/14/14 52/51/47 58/60/55
f 54/9/9 48/50/46 55/55/51
f 54/9/9 55/55/51 28/22/21
f 11/18/18 57/58/53 21/16/16
f 28/22/21 55/55/51 25/33/32
f 64/54/50 59/53/49 60/61/56
f 47/52/48 36/14/14 13/4/4
f 57/58/53 46/59/54 29/34/33
f 47/52/48 57/58/53 48/50/46
f 56/62/57 48/50/46 54/9/9
f 51/47/43 56/62/57 54/9/9
f 58/60/55 52/51/47 66/63/58
f 66/63/58 62/64/59 58/60/55
f 62/64/59 66/63/58 49/65/24
f 49/65/24 38/66/28 62/64/59
f 64/54/50 60/61/56 65/67/60
f 57/58/53 47/52/48 13/4/4
f 57/58/53 13/4/4 21/16/16
f 55/55/51 57/58/53 29/34/33
f 27/68/10 59/53/49 26/56/11
f 50/48/44 23/8/8 26/56/11
f 58/60/55 16/15/15 36/14/14
f 60/61/56 31/69/27 49/65/24
f 60/61/56 59/53/49 31/69/27
f 53/49/45 50/48/44 64/54/50
f 59/53/49 27/68/10 31/69/27
f 55/55/51 48/50/46 57/58/53
f 52/51/47 64/54/50 63/70/61
f 63/70/61 66/63/58 52/51/47
f 64/54/50 65/67/60 66/63/58
f 49/65/24 66/63/58 65/67/60
f 48/50/46 56/62/57 61/57/52
f 34/71/25 49/65/24 31/69/27
f 65/67/60 60/61/56 49/65/24
f 52/51/47 53/49/45 64/54/50
f 46/72/54 44/38/35 43/73/62
f 46/72/54 11/39/18 44/38/35
f 62/64/59 5/74/63 67/75/64
f 6/76/65 38/66/28 1/77/38
f 62/64/59 38/66/28 6/76/65
f 68/78/66 58/60/55 67/75/64
f 68/78/66 16/15/15 58/60/55
f 58/60/55 62/64/59 67/75/64
f 68/78/66 2/44/40 16/15/15
f 62/64/59 6/76/65 5/74/63
f 3/79/67 2/44/40 68/78/66
f 5/74/63 4/80/68 67/75/64
f 4/80/68 3/79/67 68/78/66
f 4/80/68 68/78/66 67/75/64
f 43/73/62 12/37/17 29/81/33
f 22/82/31 18/83/12 20/84/7
f 44/38/35 12/37/17 43/73/62
f 46/72/54 43/73/62 29/81/33
f 61/85/52 56/86/57 51/87/43
f 66/63/58 63/70/61 64/54/50
